<?xml version="1.0" encoding="utf-8"?>
<!-- Generator: Adobe Illustrator 21.1.0, SVG Export Plug-In . SVG Version: 6.00 Build 0)  -->
<svg version="1.1" id="Layer_1" xmlns="http://www.w3.org/2000/svg" xmlns:xlink="http://www.w3.org/1999/xlink" x="0px" y="0px"
	 viewBox="0 0 244 59" style="enable-background:new 0 0 244 59;" xml:space="preserve">
<style type="text/css">
	.st0{fill:#333333;}
	.st1{fill:#A6E900;}
</style>
<g>
	<path class="st0" d="M37,41.4v6.8H9.3V8.3h27.1v6.8H17.1v9.6h16.8V31H17.1v10.4H37z"/>
	<path class="st0" d="M69.6,48.2h-7.5V31.7c0-2.4-0.4-4.1-1.2-5.2c-0.8-1.1-2-1.6-3.4-1.6c-0.7,0-1.5,0.1-2.3,0.4
		c-0.8,0.3-1.5,0.7-2.2,1.3c-0.7,0.5-1.3,1.2-1.9,1.9c-0.6,0.7-1,1.6-1.2,2.5v17.2h-7.5V18.7h6.8v5.4c1.1-1.9,2.7-3.3,4.7-4.4
		c2.1-1,4.4-1.6,7-1.6c1.8,0,3.3,0.3,4.5,1c1.2,0.7,2.1,1.6,2.7,2.6c0.6,1.1,1.1,2.3,1.3,3.7c0.2,1.4,0.4,2.8,0.4,4.2V48.2z"/>
	<path class="st0" d="M83.9,48.2L73.1,18.7h7.7L88.3,42l7.5-23.3h7.1L92.1,48.2H83.9z"/>
	<path class="st0" d="M118.9,8.3h6.8l15.1,39.8h-8l-3.7-9.9h-13.9l-3.6,9.9h-8L118.9,8.3z M127.8,32.8l-5.5-15.7l-5.7,15.7H127.8z"
		/>
	<path class="st0" d="M153.5,48.7c-3,0-5.3-1-6.9-2.9c-1.6-1.9-2.4-4.8-2.4-8.6V18.7h7.5v16.8c0,4.5,1.6,6.8,4.9,6.8
		c1.5,0,2.9-0.4,4.2-1.3c1.4-0.9,2.5-2.2,3.3-4V18.7h7.5v20.8c0,0.8,0.1,1.3,0.4,1.7c0.3,0.3,0.7,0.5,1.4,0.6v6.4
		c-0.7,0.1-1.4,0.2-1.9,0.3c-0.5,0-1,0.1-1.4,0.1c-1.3,0-2.4-0.3-3.3-0.9c-0.8-0.6-1.3-1.5-1.5-2.6l-0.2-2.4c-1.3,2-3,3.5-5,4.5
		C158.2,48.2,156,48.7,153.5,48.7z"/>
	<path class="st0" d="M196.7,46.6c-1,0.4-2.2,0.9-3.7,1.3c-1.5,0.4-3,0.7-4.6,0.7c-1,0-2-0.1-2.9-0.4c-0.9-0.3-1.7-0.7-2.4-1.3
		c-0.7-0.6-1.2-1.3-1.7-2.2c-0.4-0.9-0.6-2-0.6-3.3V24.5h-3.9v-5.8h3.9V9.2h7.5v9.5h6.2v5.8h-6.2v14.4c0,1,0.3,1.8,0.8,2.2
		c0.5,0.4,1.2,0.6,2,0.6s1.6-0.1,2.3-0.4c0.7-0.3,1.3-0.5,1.8-0.7L196.7,46.6z"/>
</g>
<path class="st1" d="M216.9,49c9.3,0,16.7-7.5,16.7-16.8s-7.5-16.8-16.7-16.8s-16.7,7.5-16.7,16.8C200.2,41.5,207.7,49,216.9,49
	L216.9,49z M216.9,35.5c-1.7,0-3.1-1.4-3.1-3.1c0-1.7,1.4-3.1,3.1-3.1s3.1,1.4,3.1,3.1C220.1,34.1,218.7,35.5,216.9,35.5L216.9,35.5
	L216.9,35.5L216.9,35.5z M228.9,36c-1.2,3.9-4.3,7-8.2,8.3c-0.4,0.1-0.8-0.1-1-0.5c0-0.1,0-0.2,0-0.3v-0.3c0.2-4.5,3.9-8.1,8.4-8.1
	l0,0c0.4,0,0.8,0.3,0.8,0.8C228.9,35.8,228.9,35.9,228.9,36L228.9,36z M205.7,26.7c3.1-6.2,10.6-8.7,16.8-5.6
	c2.5,1.2,4.4,3.2,5.6,5.6c0.2,0.4,0,0.9-0.3,1.1c-0.1,0.1-0.2,0.1-0.3,0.1c-0.1,0-0.3,0-0.4-0.1c-2.3-1.5-6-2.4-10.1-2.4
	s-7.8,1-10.1,2.4c-0.1,0.1-0.3,0.1-0.4,0.1l0,0c-0.4,0-0.8-0.4-0.8-0.8C205.6,26.9,205.7,26.8,205.7,26.7L205.7,26.7z M205.7,35
	L205.7,35c4.5,0,8.3,3.6,8.4,8.1v0.3c0,0.4-0.3,0.8-0.7,0.8c-0.1,0-0.2,0-0.2,0c-3.9-1.3-7-4.3-8.2-8.3c-0.1-0.4,0.1-0.8,0.5-0.9
	C205.5,35,205.6,35,205.7,35L205.7,35z"/>
</svg>
